HIERARCHY
ROOT Hips
{
	OFFSET 0.000000 0.000000 0.000000 
	CHANNELS 6 Xposition Yposition Zposition Yrotation Zrotation Xrotation 
	JOINT Lumbar
	{
		OFFSET 0.000000 0.000000 0.000000 
		CHANNELS 3 Zrotation Xrotation Yrotation
		JOINT Neck
		{
			OFFSET 0.000000 0.445665 0.000000 
			CHANNELS 3 Zrotation Xrotation Yrotation
			End Site
			{
				OFFSET 0.000000 0.227535 0.000000 
			}
		}
		JOINT RightShoulder
		{
			OFFSET 0.019635 0.377685 0.194865 
			CHANNELS 3 Zrotation Xrotation Yrotation
			JOINT RightElbow
			{
				OFFSET 0.000000 -0.243375 0.000000 
				CHANNELS 2 Zrotation Yrotation
				JOINT RightWrist
				{
					OFFSET 0.000000 -0.264825 0.000000 
					CHANNELS 2 Zrotation Xrotation
					End Site
					{
						OFFSET 0.006600 -0.176220 0.000990 
					}
				}
			}
		}
		JOINT LeftShoulder
		{
			OFFSET 0.019635 0.377685 -0.194865 
			CHANNELS 3 Zrotation Xrotation Yrotation
			JOINT LeftElbow
			{
				OFFSET 0.000000 -0.243375 0.000000 
				CHANNELS 2 Zrotation Yrotation
				JOINT LeftWrist
				{
					OFFSET 0.000000 -0.264825 0.000000 
					CHANNELS 2 Zrotation Xrotation
					End Site
					{
						OFFSET 0.006600 -0.176220 -0.000990 
					}
				}
			}
		}
	}
	JOINT RightHip
	{
		OFFSET 0.052140 -0.069960 0.075570 
		CHANNELS 3 Zrotation Xrotation Yrotation
		JOINT RightKnee
		{
			OFFSET 0.000000 -0.402270 0.000000 
			CHANNELS 1 Zrotation
			JOINT RightAnkle
			{
				OFFSET 0.000000 -0.404085 0.000000 
				CHANNELS 3 Zrotation Xrotation Yrotation
				End Site
				{
					OFFSET 0.204105 -0.089430 0.008415 
				}
			}
		}
	}
	JOINT LeftHip
	{
		OFFSET 0.052140 -0.069960 -0.075570 
		CHANNELS 3 Zrotation Xrotation Yrotation
		JOINT LeftKnee
		{
			OFFSET 0.000000 -0.402270 0.000000 
			CHANNELS 1 Zrotation
			JOINT LeftAnkle
			{
				OFFSET 0.000000 -0.404085 0.000000 
				CHANNELS 3 Zrotation Xrotation Yrotation
				End Site
				{
					OFFSET 0.204105 -0.089430 -0.008415 
				}
			}
		}
	}
}
MOTION
Frames: 34
Frame Time: 0.02
0.00038 -7e-05 -4e-05 25.9273 -32.12268 -5.81884 47.88999 1.69427 -8.25732 5.98822 1.89907 -0.97261 -21.99547 -8.69393 0.54892 35.21312 90.86016 5.28465 1.35251 -32.24371 10.91532 -6.76207 44.66039 -119.35363 19.53369 -5.86617 47.00467 -0.26575 -6.1985 -19.25159 -6.32107 -2.69434 -3.52213 50.62523 3.85477 8.93927 -25.08082 -6.45007 2.10712 3.28074
-4e-05 -0.00013 0.00019 26.00869 -32.20384 -5.8394 47.82345 1.72525 -8.05811 6.24218 1.94663 -0.97446 -21.67852 -8.86781 0.82155 35.16082 90.86486 5.29235 1.34716 -31.46601 11.43263 -7.36595 45.10135 -115.86058 18.08563 -5.12496 47.10398 -0.33605 -6.62694 -19.25832 -6.31624 -2.65989 -3.50504 50.75172 3.87124 8.98877 -25.09222 -6.45495 2.09907 3.27384
-0.00047 -0.00018 0.00042 26.08979 -32.28483 -5.8599 47.75701 1.75616 -7.85948 6.49572 1.99407 -0.97631 -21.3617 -9.0411 1.09334 35.10852 90.86954 5.30003 1.34183 -30.6893 11.94744 -7.96631 45.54086 -112.39095 16.64667 -4.38832 47.20311 -0.40611 -7.05423 -19.26504 -6.31143 -2.62553 -3.488 50.87797 3.8877 9.03792 -25.10364 -6.45982 2.09104 3.26697
-0.00089 -0.00024 0.00065 26.17093 -32.36575 -5.88039 47.69067 1.78705 -7.66087 6.74896 2.04148 -0.97815 -21.04559 -9.21444 1.36515 35.05635 90.87421 5.30771 1.3365 -29.9138 12.46297 -8.56794 45.98046 -108.91164 15.20416 -3.64993 47.30214 -0.47619 -7.48138 -19.27176 -6.30662 -2.59119 -3.47096 51.00411 3.90412 9.08723 -25.11501 -6.46468 2.08301 3.26009
-0.00132 -0.00029 0.00088 26.25236 -32.4468 -5.90093 47.62424 1.818 -7.46169 7.00248 2.08899 -0.98 -20.72967 -9.38836 1.63776 35.00423 90.87897 5.31544 1.33114 -29.13776 12.98145 -9.17403 46.42153 -105.40163 13.74987 -2.90564 47.40126 -0.5465 -7.90961 -19.27846 -6.30179 -2.55676 -3.45388 51.13039 3.92055 9.13698 -25.12635 -6.46955 2.07495 3.25319
-0.00174 -0.00034 0.00111 26.33272 -32.52765 -5.92134 47.55776 1.84881 -7.26424 7.25606 2.13628 -0.98185 -20.41098 -9.56029 1.90777 34.95157 90.88351 5.32302 1.32589 -28.35967 13.4886 -9.76251 46.85771 -102.0155 12.34266 -2.18487 47.50042 -0.61604 -8.33492 -19.28524 -6.29703 -2.52254 -3.43692 51.25656 3.9371 9.18489 -25.13793 -6.47442 2.06699 3.24638
-0.00217 -0.0004 0.00134 26.41521 -32.60885 -5.94202 47.49152 1.87987 -7.06351 7.50923 2.18399 -0.98368 -20.09821 -9.73609 2.18282 34.90006 90.88834 5.33084 1.3204 -27.58675 14.01762 -10.38484 47.30328 -98.39101 10.84492 -1.41887 47.59943 -0.68706 -8.76559 -19.29186 -6.29213 -2.48794 -3.41974 51.3829 3.95336 9.23639 -25.14902 -6.47928 2.05884 3.23939
-0.00259 -0.00045 0.00157 26.49564 -32.68964 -5.96241 47.42496 1.91069 -6.86585 7.76277 2.23127 -0.98555 -19.78001 -9.90824 2.45303 34.84746 90.89317 5.33852 1.3152 -26.80876 14.52717 -10.97769 47.74013 -94.97324 9.42582 -0.6922 47.69848 -0.7567 -9.1914 -19.29863 -6.28736 -2.45367 -3.40275 51.50894 3.96992 9.28469 -25.16053 -6.48416 2.05087 3.23257
-0.00301 -0.0005 0.00181 26.57392 -32.77031 -5.98259 47.35836 1.94128 -6.67165 8.01695 2.2782 -0.98738 -19.45477 -10.07634 2.71822 34.79362 90.89695 5.34571 1.31008 -26.02518 15.01018 -11.52758 48.16674 -91.86097 8.12229 -0.02315 47.79806 -0.82476 -9.61115 -19.30557 -6.28274 -2.41987 -3.38602 51.63525 3.98671 9.32863 -25.1727 -6.48904 2.0431 3.22593
-0.00346 -0.00057 0.002 26.66571 -32.85284 -6.0044 47.29305 1.9734 -6.45665 8.26807 2.32766 -0.98916 -19.16876 -10.26897 3.01498 34.74719 90.90359 5.35478 1.30367 -25.27554 15.63767 -12.30377 48.65356 -87.14987 6.21234 0.9487 47.89605 -0.90222 -10.06545 -19.31152 -6.27722 -2.38358 -3.36788 51.76191 4.00178 9.39631 -25.1815 -6.49384 2.0341 3.21817
-0.00383 -0.0006 0.0023 26.72827 -32.93066 -6.02249 47.22435 2.00213 -6.28613 8.52519 2.37144 -0.99122 -18.80092 -10.40903 3.24342 34.68495 90.90623 5.36046 1.30049 -24.45335 15.96564 -12.61598 49.01247 -85.7093 5.544 1.30026 47.99645 -0.95965 -10.447 -19.31954 -6.27362 -2.3524 -3.35266 51.88659 4.02073 9.41478 -25.19714 -6.49883 2.02777 3.21281
-0.00402 -0.00056 0.00287 26.71585 -33.00196 -6.03263 47.15172 2.02282 -6.23415 8.80265 2.40206 -0.99272 -18.19934 -10.41029 3.29641 34.58115 90.89079 5.35492 1.30349 -23.43759 15.41872 -11.52917 49.02431 -94.20312 8.63741 -0.22474 48.11128 -0.96304 -10.62597 -19.33332 -6.27532 -2.33639 -3.34606 52.01595 4.04828 9.28941 -25.23408 -6.50418 2.02816 3.21386
-0.00412 -0.00048 0.00356 26.6731 -33.06729 -6.03854 47.07475 2.03985 -6.22762 9.08522 2.42629 -0.99476 -17.518 -10.35782 3.27839 34.46169 90.87936 5.34825 1.31124 -22.34833 14.58014 -9.99813 48.90706 -105.81999 12.91821 -2.34345 48.22699 -0.94613 -10.73237 -19.34917 -6.27895 -2.32529 -3.34228 52.14134 4.08007 9.11618 -25.27742 -6.50975 2.03134 3.21735
-0.00424 -0.00041 0.00421 26.64086 -33.13124 -6.04502 46.9962 2.05775 -6.20239 9.36323 2.45217 -0.9974 -16.87822 -10.3263 3.28527 34.34754 90.86213 5.34093 1.31726 -21.28855 13.91051 -8.75458 48.84622 -115.3596 16.41597 -4.07256 48.33731 -0.93791 -10.87402 -19.36397 -6.28169 -2.31116 -3.33683 52.26208 4.11129 8.97065 -25.31617 -6.51529 2.03361 3.21982
-0.00444 -0.00037 0.00479 26.6225 -33.21269 -6.05751 46.93239 2.07908 -6.16843 9.65162 2.48431 -0.9964 -16.21285 -10.30902 3.3239 34.23876 90.83406 5.33067 1.31728 -20.24347 13.08949 -7.15544 48.79431 -127.61412 20.91766 -6.2956 48.46907 -0.93195 -11.00626 -19.37916 -6.28449 -2.30034 -3.33303 52.41047 4.13693 8.80013 -25.36204 -6.52049 2.03434 3.2219
-0.00446 -0.00026 0.00554 26.5679 -33.25599 -6.0561 46.83715 2.09231 -6.16413 9.91845 2.50065 -1.0032 -15.58563 -10.24969 3.2786 34.11789 90.86419 5.33611 1.33621 -19.15247 12.51103 -6.18323 48.6936 -135.04084 23.64252 -7.64686 48.55593 -0.91643 -11.14053 -19.39413 -6.2876 -2.28385 -3.32646 52.49978 4.17503 8.67003 -25.39457 -6.52648 2.03901 3.22542
-0.00407 2e-05 0.00671 26.42185 -33.1977 -6.02051 46.65383 2.08471 -6.22428 10.13372 2.48521 -1.03063 -15.05232 -10.08582 3.03033 33.9435 90.73576 5.29507 1.35743 -17.9354 12.70648 -7.12543 48.48691 -127.6106 20.88226 -6.30222 48.52234 -0.87979 -11.30141 -19.40719 -6.29124 -2.2502 -3.31139 52.43154 4.24783 8.66589 -25.38903 -6.53443 2.05315 3.2319
-0.00349 0.00036 0.00805 26.24011 -33.10073 -5.97039 46.43959 2.06899 -6.31383 10.32508 2.45186 -1.06602 -14.56643 -9.88264 2.69993 33.76197 90.71016 5.28256 1.40414 -16.67837 13.15037 -8.70031 48.23626 -115.35279 16.34499 -4.08565 48.4427 -0.8342 -11.46614 -19.42022 -6.29507 -2.21074 -3.29345 52.30299 4.33272 8.70361 -25.36992 -6.5432 2.07131 3.23985
-0.00297 0.00068 0.00933 26.07398 -33.02007 -5.92496 46.2409 2.05654 -6.39406 10.52172 2.42037 -1.09827 -14.07862 -9.69741 2.39717 33.59946 90.86534 5.3213 1.47435 -15.45036 13.45879 -9.93654 48.00743 -105.80651 12.81145 -2.36293 48.38188 -0.79245 -11.62714 -19.43367 -6.29875 -2.17413 -3.27692 52.19916 4.41126 8.72042 -25.35662 -6.5517 2.08805 3.24739
-0.00256 0.00099 0.01055 25.90957 -32.94485 -5.88784 46.03525 2.04564 -6.45894 10.74335 2.41643 -1.12855 -13.50332 -9.50642 2.12466 33.36985 90.12194 5.1058 1.40685 -14.17195 13.85115 -11.37231 47.7657 -94.19361 8.49646 -0.25167 48.33057 -0.7508 -11.79443 -19.44505 -6.30285 -2.1368 -3.26005 52.107 4.49377 8.74347 -25.34446 -6.55978 2.10304 3.25388
-0.00188 0.00132 0.01192 25.73324 -32.84881 -5.82952 45.83743 2.02977 -6.56204 10.90564 2.34933 -1.16477 -13.12485 -9.3232 1.7808 33.27843 91.19699 5.40542 1.61935 -12.99248 14.13289 -12.54951 47.54284 -85.68603 5.36508 1.26857 48.24781 -0.70729 -11.9499 -19.46122 -6.30599 -2.09952 -3.24317 51.97567 4.57056 8.76413 -25.32734 -6.5689 2.12274 3.26295
-0.00063 0.00165 0.01367 25.53503 -32.70778 -5.72087 45.6631 2.00119 -6.76429 10.92315 2.12603 -1.21582 -13.25939 -9.13257 1.16953 33.57107 97.94675 7.30618 2.71102 -12.07592 14.03738 -12.85029 47.37712 -87.01043 5.98338 0.91821 48.09508 -0.65871 -12.07662 -19.48644 -6.30744 -2.06392 -3.22713 51.75713 4.63131 8.76782 -25.29606 -6.58103 2.15337 3.2781
0.00088 0.00198 0.01557 25.32583 -32.54642 -5.59074 45.4986 1.96831 -7.00345 10.87922 1.83721 -1.27247 -13.59454 -8.95789 0.50428 34.00283 106.40554 9.6921 4.06422 -11.26495 13.82535 -12.87187 47.23374 -91.58734 7.83638 -0.04806 47.91101 -0.60883 -12.19044 -19.51731 -6.30769 -2.02858 -3.21116 51.50079 4.68564 8.76798 -25.26253 -6.59411 2.1888 3.29589
0.00232 0.00231 0.01739 25.12019 -32.39262 -5.46717 45.33357 1.9378 -7.22514 10.8548 1.56945 -1.32632 -13.85032 -8.80222 -0.07372 34.37066 113.62522 11.73112 5.22203 -10.41852 13.67556 -13.02955 47.08435 -94.62141 9.09151 -0.71445 47.7379 -0.56131 -12.30778 -19.54828 -6.30784 -1.99296 -3.19502 51.25686 4.74077 8.76999 -25.23047 -6.60653 2.22277 3.3129
0.00357 0.00266 0.01924 24.91908 -32.24524 -5.35583 45.15163 1.90441 -7.45144 10.86534 1.33806 -1.38161 -14.05689 -8.53702 -0.91019 34.74178 122.7629 14.29508 6.69726 -9.51566 13.49569 -13.17347 46.91529 -97.80055 10.45332 -1.44044 47.57803 -0.50694 -12.43646 -19.56778 -6.31082 -1.95762 -3.17929 51.02822 4.80411 8.77213 -25.18954 -6.61992 2.25387 3.32823
0.00527 0.00296 0.02105 24.70672 -32.07932 -5.21507 45.00664 1.87715 -7.67575 10.78846 1.01534 -1.43504 -14.41425 -8.50085 -1.2316 35.13847 128.35772 15.89278 7.58141 -8.7586 13.34678 -13.26735 46.79377 -101.46442 11.89313 -2.19319 47.38253 -0.46545 -12.53668 -19.61275 -6.30753 -1.92209 -3.16289 50.76298 4.8501 8.77295 -25.17489 -6.63152 2.29199 3.34763
0.00814 0.00321 0.02272 24.46374 -31.87467 -4.99015 44.96989 1.85911 -7.89126 10.48818 0.45902 -1.48253 -15.1279 -9.12261 -0.01787 35.57615 123.33749 14.59644 6.69747 -8.35657 13.31802 -13.32518 46.79223 -106.1124 13.39445 -2.93093 47.10606 -0.47025 -12.5774 -19.72402 -6.28787 -1.8836 -3.14354 50.37843 4.83702 8.7674 -25.16562 -6.63791 2.34858 3.37805
0.01144 0.0034 0.02432 24.21076 -31.65089 -4.73804 44.96842 1.84907 -8.10191 10.10175 -0.18708 -1.52779 -15.98792 -9.96882 1.6978 36.03278 114.76746 12.33011 5.22264 -8.10217 13.32203 -13.33312 46.83866 -111.08492 14.91551 -3.66818 46.79285 -0.48626 -12.58759 -19.86083 -6.26184 -1.84532 -3.12372 49.96496 4.80867 8.76069 -25.19689 -6.64251 2.41196 3.41239
0.01454 0.00359 0.02594 23.9636 -31.43117 -4.50367 44.94542 1.84117 -8.31133 9.75281 -0.79397 -1.57365 -16.78828 -10.69342 3.11878 36.4794 108.09615 10.57883 4.06582 -7.79431 13.30583 -13.33824 46.86769 -115.63404 16.3358 -4.36816 46.49078 -0.49022 -12.60049 -19.98812 -6.23829 -1.80858 -3.10487 49.58157 4.79605 8.75719 -25.2524 -6.6479 2.47208 3.44468
0.01767 0.0039 0.02764 23.70928 -31.23021 -4.24543 44.94638 1.80877 -8.53801 9.40825 -1.39747 -1.62146 -17.5679 -11.50216 4.81918 36.94167 100.28781 8.53386 2.71061 -7.43147 13.30836 -13.44049 46.88055 -121.42803 18.17457 -5.24309 46.21258 -0.52305 -12.65742 -20.10829 -6.21638 -1.76514 -3.08293 49.12046 4.74756 8.74399 -25.12231 -6.65329 2.53328 3.47826
0.02085 0.00395 0.02915 23.46933 -30.98597 -4.03122 44.90514 1.82935 -8.72529 9.0355 -2.02718 -1.66459 -18.42138 -12.18772 6.05719 37.36789 93.97168 6.86047 1.62319 -7.21819 13.28093 -13.33358 46.93611 -124.70261 19.14437 -5.75094 45.87442 -0.49897 -12.61886 -20.24739 -6.18962 -1.73548 -3.06721 48.82095 4.76843 8.74861 -25.39522 -6.65844 2.59358 3.50998
0.02399 0.00323 0.03028 23.25711 -30.62689 -3.94068 44.74402 1.99414 -8.81907 8.60128 -2.71811 -1.69555 -19.4548 -12.48648 5.89826 37.74251 92.73005 6.4782 1.43338 -7.37116 13.16504 -12.64893 47.1159 -120.60131 17.58669 -5.19711 45.39665 -0.31076 -12.29555 -20.4487 -6.15044 -1.74579 -3.06951 48.92253 4.9994 8.82328 -26.70793 -6.66157 2.65109 3.53597
0.02718 0.00225 0.03123 23.06234 -30.22535 -3.89605 44.5385 2.21179 -8.86985 8.14287 -3.42984 -1.72179 -20.55426 -12.65173 5.25652 38.0702 93.08869 6.49597 1.52974 -7.67177 13.01819 -11.7589 47.33358 -113.99969 15.17043 -4.27965 44.85698 -0.06593 -11.88239 -20.66508 -6.10672 -1.76962 -3.07794 49.19715 5.29758 8.91359 -28.43259 -6.66484 2.70707 3.5598
0.03039 0.00142 0.0322 22.8692 -29.84295 -3.83386 44.34938 2.40569 -8.93171 7.69893 -4.12475 -1.75005 -21.61478 -12.87287 4.83421 38.38356 92.6492 6.30971 1.48469 -7.9103 12.88433 -10.97271 47.52193 -108.75105 13.22244 -3.55751 44.33443 0.15044 -11.52936 -20.864 -6.06544 -1.78593 -3.08307 49.4277 5.5558 8.98135 -30.01513 -6.66925 2.76302 3.58445
